<?xml version="1.0" encoding="UTF-8"?>
<svg id="Layer_1" data-name="Layer 1" xmlns="http://www.w3.org/2000/svg" viewBox="0 0 1367 700.3">
  <defs>
    <style>
      .cls-1, .cls-2, .cls-3, .cls-4, .cls-5, .cls-6, .cls-7, .cls-8, .cls-9 {
        stroke: #000;
        stroke-miterlimit: 10;
      }

      .cls-2 {
        fill: #ff931e;
      }

      .cls-3 {
        fill: #ff7bac;
      }

      .cls-4 {
        fill: #ed1e79;
      }

      .cls-5 {
        fill: #fcee21;
      }

      .cls-6 {
        fill: #fbb03b;
      }

      .cls-7 {
        fill: #93278f;
      }

      .cls-8 {
        fill: #3fa9f5;
      }

      .cls-9 {
        fill: #7ac943;
      }
    </style>
  </defs>
  <path class="cls-1" d="M1366.5,401.32c-43.87,22.1-109.55,57.5-185,108-161.77,108.26-198.65,178.23-269,163-75.06-16.25-80.96-93.38-197-152-26.46-13.37-127.92-60.77-242-40-150.21,27.35-185.17,147.91-272,141-53.39-4.25-125.82-56.64-201-283V174.32C112.01,102.03,244.38,46.86,365.5,86.32c150.73,49.11,155.45,202.91,299,228,150.95,26.38,242.07-126.82,384-72,68.54,26.47,81.89,75.57,137,75,78.04-.8,140.46-100.16,181-184V401.32Z"/>
  <polygon class="cls-5" points="908.67 300.82 864.76 215.85 769.87 203.85 837.11 135.84 819.2 41.89 904.67 84.82 988.48 38.75 974.06 133.3 1043.78 198.78 949.4 214.28 908.67 300.82"/>
  <polygon class="cls-3" points="291.33 524.15 243.81 525.89 218.29 566.02 201.96 521.35 155.9 509.49 193.33 480.15 190.39 432.69 229.85 459.22 274.09 441.75 261.05 487.48 291.33 524.15"/>
  <polygon class="cls-6" points="663 626.82 556.29 616.91 487.63 699.2 464.07 594.65 364.59 554.78 456.75 500.07 463.93 393.14 544.44 463.88 648.35 437.66 605.95 536.09 663 626.82"/>
  <polygon class="cls-9" points="1254 100.82 1224.55 80.92 1191.46 93.89 1201.29 59.74 1178.73 32.28 1214.25 31.07 1233.39 1.12 1245.52 34.53 1279.91 43.48 1251.89 65.34 1254 100.82"/>
  <polygon class="cls-4" points="71 84.49 56.41 82.68 46.65 93.67 43.86 79.24 30.38 73.35 43.25 66.24 44.68 51.6 55.43 61.64 69.79 58.48 63.56 71.8 71 84.49"/>
  <polygon class="cls-8" points="151.67 121.82 122.92 119.34 104.59 141.62 98.06 113.52 71.21 102.96 95.92 88.07 97.66 59.27 119.46 78.17 147.38 70.92 136.15 97.5 151.67 121.82"/>
  <polygon class="cls-2" points="1316.67 459.49 1300.98 449.7 1284.02 457.08 1288.48 439.14 1276.22 425.29 1294.67 423.99 1304.05 408.05 1310.99 425.19 1329.04 429.18 1314.89 441.08 1316.67 459.49"/>
  <polygon class="cls-3" points="1268.67 479.49 1255.48 474.02 1243.5 481.79 1244.62 467.56 1233.54 458.57 1247.42 455.24 1252.54 441.91 1260 454.08 1274.25 454.84 1264.98 465.69 1268.67 479.49"/>
  <polygon class="cls-7" points="1307.33 535.49 1293.39 513.73 1267.56 512.89 1283.94 492.9 1276.77 468.08 1300.83 477.49 1322.22 462.99 1320.72 488.78 1341.11 504.65 1316.12 511.19 1307.33 535.49"/>
</svg>